<svg id="visual" viewBox="0 0 960 540" width="960" height="540" xmlns="http://www.w3.org/2000/svg" xmlns:xlink="http://www.w3.org/1999/xlink" version="1.1"><rect x="0" y="0" width="960" height="540" fill="#ececec"></rect><path d="M0 61L32 66.2C64 71.3 128 81.7 192 87.2C256 92.7 320 93.3 384 88.5C448 83.7 512 73.3 576 65.7C640 58 704 53 768 53.7C832 54.3 896 60.7 928 63.8L960 67L960 0L928 0C896 0 832 0 768 0C704 0 640 0 576 0C512 0 448 0 384 0C320 0 256 0 192 0C128 0 64 0 32 0L0 0Z" fill="#bf92c9"></path><path d="M0 36L32 35.3C64 34.7 128 33.3 192 36.2C256 39 320 46 384 47.3C448 48.7 512 44.3 576 40.8C640 37.3 704 34.7 768 37.2C832 39.7 896 47.3 928 51.2L960 55L960 0L928 0C896 0 832 0 768 0C704 0 640 0 576 0C512 0 448 0 384 0C320 0 256 0 192 0C128 0 64 0 32 0L0 0Z" fill="#e6a0bd"></path><path d="M0 43L32 45.7C64 48.3 128 53.7 192 52.8C256 52 320 45 384 39.3C448 33.7 512 29.3 576 30C640 30.7 704 36.3 768 39C832 41.7 896 41.3 928 41.2L960 41L960 0L928 0C896 0 832 0 768 0C704 0 640 0 576 0C512 0 448 0 384 0C320 0 256 0 192 0C128 0 64 0 32 0L0 0Z" fill="#fab5b5"></path></svg>