<svg id="visual" viewBox="0 0 960 540" width="960" height="540" xmlns="http://www.w3.org/2000/svg" xmlns:xlink="http://www.w3.org/1999/xlink" version="1.1"><rect x="0" y="0" width="960" height="540" fill="#ececec"></rect><path d="M0 75L32 81.2C64 87.3 128 99.7 192 106C256 112.3 320 112.7 384 109.7C448 106.7 512 100.3 576 90.8C640 81.3 704 68.7 768 69.2C832 69.7 896 83.3 928 90.2L960 97L960 0L928 0C896 0 832 0 768 0C704 0 640 0 576 0C512 0 448 0 384 0C320 0 256 0 192 0C128 0 64 0 32 0L0 0Z" fill="#bf92c9"></path><path d="M0 43L32 47.2C64 51.3 128 59.7 192 60.3C256 61 320 54 384 48.8C448 43.7 512 40.3 576 43.8C640 47.3 704 57.7 768 66C832 74.3 896 80.7 928 83.8L960 87L960 0L928 0C896 0 832 0 768 0C704 0 640 0 576 0C512 0 448 0 384 0C320 0 256 0 192 0C128 0 64 0 32 0L0 0Z" fill="#e6a0bd"></path><path d="M0 27L32 31.7C64 36.3 128 45.7 192 48.3C256 51 320 47 384 43.8C448 40.7 512 38.3 576 37.3C640 36.3 704 36.7 768 34C832 31.3 896 25.7 928 22.8L960 20L960 0L928 0C896 0 832 0 768 0C704 0 640 0 576 0C512 0 448 0 384 0C320 0 256 0 192 0C128 0 64 0 32 0L0 0Z" fill="#fab5b5"></path></svg>