<svg id="visual" viewBox="0 0 960 540" width="960" height="540" xmlns="http://www.w3.org/2000/svg" xmlns:xlink="http://www.w3.org/1999/xlink" version="1.1"><rect x="0" y="0" width="960" height="540" fill="#ececec"></rect><path d="M0 109L32 102C64 95 128 81 192 74.3C256 67.7 320 68.3 384 64.7C448 61 512 53 576 49.2C640 45.3 704 45.7 768 45.8C832 46 896 46 928 46L960 46L960 0L928 0C896 0 832 0 768 0C704 0 640 0 576 0C512 0 448 0 384 0C320 0 256 0 192 0C128 0 64 0 32 0L0 0Z" fill="#bf92c9"></path><path d="M0 32L32 34.7C64 37.3 128 42.7 192 51.7C256 60.7 320 73.3 384 76.7C448 80 512 74 576 65.5C640 57 704 46 768 46.7C832 47.3 896 59.7 928 65.8L960 72L960 0L928 0C896 0 832 0 768 0C704 0 640 0 576 0C512 0 448 0 384 0C320 0 256 0 192 0C128 0 64 0 32 0L0 0Z" fill="#e6a0bd"></path><path d="M0 41L32 42C64 43 128 45 192 45.7C256 46.3 320 45.7 384 46.5C448 47.3 512 49.7 576 49.3C640 49 704 46 768 42.3C832 38.7 896 34.3 928 32.2L960 30L960 0L928 0C896 0 832 0 768 0C704 0 640 0 576 0C512 0 448 0 384 0C320 0 256 0 192 0C128 0 64 0 32 0L0 0Z" fill="#fab5b5"></path></svg>