<svg id="visual" viewBox="0 0 960 540" width="960" height="540" xmlns="http://www.w3.org/2000/svg" xmlns:xlink="http://www.w3.org/1999/xlink" version="1.1"><rect x="0" y="0" width="960" height="540" fill="#ececec"></rect><path d="M0 51L22.8 52.5C45.7 54 91.3 57 137 63.2C182.7 69.3 228.3 78.7 274 88.5C319.7 98.3 365.3 108.7 411.2 113.5C457 118.3 503 117.7 548.8 108.7C594.7 99.7 640.3 82.3 686 69.5C731.7 56.7 777.3 48.3 823 47.5C868.7 46.7 914.3 53.3 937.2 56.7L960 60L960 0L937.2 0C914.3 0 868.7 0 823 0C777.3 0 731.7 0 686 0C640.3 0 594.7 0 548.8 0C503 0 457 0 411.2 0C365.3 0 319.7 0 274 0C228.3 0 182.7 0 137 0C91.3 0 45.7 0 22.8 0L0 0Z" fill="#bf92c9"></path><path d="M0 75L22.8 71.5C45.7 68 91.3 61 137 63.2C182.7 65.3 228.3 76.7 274 74C319.7 71.3 365.3 54.7 411.2 49.7C457 44.7 503 51.3 548.8 55.8C594.7 60.3 640.3 62.7 686 61C731.7 59.3 777.3 53.7 823 57.2C868.7 60.7 914.3 73.3 937.2 79.7L960 86L960 0L937.2 0C914.3 0 868.7 0 823 0C777.3 0 731.7 0 686 0C640.3 0 594.7 0 548.8 0C503 0 457 0 411.2 0C365.3 0 319.7 0 274 0C228.3 0 182.7 0 137 0C91.3 0 45.7 0 22.8 0L0 0Z" fill="#e6a0bd"></path><path d="M0 38L22.8 39C45.7 40 91.3 42 137 39.8C182.7 37.7 228.3 31.3 274 33.8C319.7 36.3 365.3 47.7 411.2 50.3C457 53 503 47 548.8 44.3C594.7 41.7 640.3 42.3 686 40C731.7 37.7 777.3 32.3 823 31C868.7 29.7 914.3 32.3 937.2 33.7L960 35L960 0L937.2 0C914.3 0 868.7 0 823 0C777.3 0 731.7 0 686 0C640.3 0 594.7 0 548.8 0C503 0 457 0 411.2 0C365.3 0 319.7 0 274 0C228.3 0 182.7 0 137 0C91.3 0 45.7 0 22.8 0L0 0Z" fill="#fab5b5"></path></svg>